<?xml version="1.0" encoding="utf-8"?>
<!-- Generator: Adobe Illustrator 21.0.0, SVG Export Plug-In . SVG Version: 6.00 Build 0)  -->
<svg version="1.1" id="Layer_1" xmlns="http://www.w3.org/2000/svg" xmlns:xlink="http://www.w3.org/1999/xlink" x="0px" y="0px"
	 viewBox="0 0 244.4 58.9" style="enable-background:new 0 0 244.4 58.9;" xml:space="preserve">
<style type="text/css">
	.st0{clip-path:url(#SVGID_2_);fill:#133561;}
	.st1{clip-path:url(#SVGID_2_);fill:#3098D4;}
	.st2{clip-path:url(#SVGID_2_);fill:#A967AA;}
</style>
<g>
	<defs>
		<rect id="SVGID_1_" width="244.4" height="58.9"/>
	</defs>
	<clipPath id="SVGID_2_">
		<use xlink:href="#SVGID_1_"  style="overflow:visible;"/>
	</clipPath>
	<path class="st0" d="M45.4,22.4l-15.3-3.6c-0.7-0.2-1.3,0.3-1.5,0.9l-4.4,18.5c-0.2,0.7,0.3,1.3,0.9,1.5l7.8,1.8
		c-0.5,1.7-1.3,3.8-2.8,5.8c-1.3,1.8-3.3,3.7-8.1,5.1c-0.3,0.1-0.6,0.3-0.8,0.6c-0.2,0.3-0.2,0.7,0,1l1.6,4c0.2,0.5,0.7,0.8,1.2,0.8
		c0.1,0,0.1,0,0.2,0c5-0.9,9.1-3,12.1-6.1c2.9-3.1,5.1-7.7,6.5-13.5l3.6-15.3C46.4,23.3,46,22.6,45.4,22.4"/>
	<path class="st0" d="M24.3,17.3L9,13.7c-0.7-0.2-1.3,0.3-1.5,0.9L3.1,33.1c-0.2,0.7,0.3,1.3,0.9,1.5l7.8,1.8
		c-0.5,1.7-1.3,3.8-2.8,5.8C7.7,44,5.7,46,0.9,47.3c-0.3,0.1-0.6,0.3-0.8,0.6c-0.2,0.3-0.2,0.7,0,1l1.6,4c0.2,0.5,0.7,0.8,1.2,0.8
		c0.1,0,0.1,0,0.2,0c5-0.9,9.1-3,12.1-6.1c2.9-3.1,5.1-7.7,6.5-13.5l3.6-15.3C25.4,18.2,25,17.5,24.3,17.3"/>
	<path class="st1" d="M57.1,54.7c-3.8-7.3-9.3-12.3-12-14.4l-0.1,0.4c-0.8,3.2-1.8,6-3,8.4c2.1,1.6,5.9,4.7,8.7,9.2
		c0.3,0.4,0.8,0.7,1.3,0.7c0.2,0,0.5-0.1,0.7-0.2l3.7-2C57.2,56.3,57.5,55.4,57.1,54.7"/>
	<path class="st1" d="M49.1,12.1c0,3.9-3.1,7-7,7c-3.9,0-7-3.1-7-7s3.1-7,7-7C46,5.1,49.1,8.2,49.1,12.1"/>
	<path class="st1" d="M28,7c0,3.9-3.1,7-7,7c-3.9,0-7-3.1-7-7s3.1-7,7-7C24.9,0,28,3.1,28,7"/>
	<path class="st1" d="M85.5,26.8c-1.3,5.9-2.3,9.8-5,14.4c-0.9,0.2-1.8,0.2-2.7,0.2c-0.9,0-1.8-0.1-2.7-0.2c-0.6-1-1.2-2.1-1.8-3.4
		c-0.3,1.3-0.7,2.4-1.2,3.4c-0.9,0.2-1.9,0.2-2.7,0.2c-0.9,0-1.8-0.1-2.7-0.2c-3.1-4.6-4.2-8.7-5.2-14.4c0.7-0.2,2.4-0.4,3.9-0.4
		c0.6,0,1.7,0.1,2.3,0.1c0.5,4.4,1.5,8.6,1.9,10c0.1,0.2,0.2,0.6,0.2,0.9c0-0.3,0.1-0.6,0.2-0.9c0.3-0.9,0.9-2.9,1.2-5.2
		c-0.4-1.5-0.7-2.9-1-4.4c0.6-0.2,2.4-0.4,3.8-0.4c0.6,0,1.4,0.1,1.9,0.1c0.5,4.4,1.3,8.5,1.7,10c0.1,0.3,0.2,0.7,0.2,1.1
		c0.1-0.4,0.1-0.7,0.2-1.1c0.4-1.5,1.1-5.7,1.7-10c0.6-0.1,1.6-0.1,2.4-0.1C83.3,26.3,84.5,26.5,85.5,26.8"/>
	<path class="st1" d="M96.9,33.8c0-2.1-0.9-3.4-2.7-3.4c-1.8,0-2.7,1.3-2.7,3.4c0,2,1,3.3,2.7,3.3C96,37.1,96.9,35.8,96.9,33.8
		 M85.9,33.8c0-4.9,3.5-7.9,8.3-7.9c4.8,0,8.2,2.9,8.2,7.9c0,4.8-3.4,7.9-8.2,7.9C89.4,41.7,85.9,38.9,85.9,33.8"/>
	<path class="st1" d="M114.8,26.3c-0.1,1.8-0.6,3.6-1.6,4.8c-0.4-0.1-0.8-0.2-1.4-0.2c-0.8,0-1.5,0.2-1.8,0.3v9.9
		c-0.9,0.2-1.9,0.2-2.8,0.2c-0.9,0-1.9-0.1-2.8-0.2V28.3c1-0.9,3.3-2.4,6.8-2.4C112.8,25.9,114.1,26.1,114.8,26.3"/>
	<path class="st1" d="M125.3,36.9v-6c-0.5-0.2-1-0.2-1.5-0.2c-1.8,0-3.2,1.2-3.2,3.1c0,1.9,1.3,3.2,3.2,3.2
		C124.3,37,124.8,37,125.3,36.9 M130.9,20.8v19.4c-1.6,0.8-4.2,1.5-6.9,1.5c-5.8,0-9-2.8-9-7.8c0-4.8,3.7-7.9,8.4-7.9
		c0.7,0,1.3,0.1,1.9,0.2v-5.3c0.9-0.2,1.9-0.2,2.8-0.2C129,20.6,130,20.7,130.9,20.8"/>
	<path class="st2" d="M143.9,33.8c0-2.1-0.9-3.4-2.7-3.4c-1.8,0-2.7,1.3-2.7,3.4c0,2,1,3.3,2.7,3.3C143,37.1,143.9,35.8,143.9,33.8
		 M132.9,33.8c0-4.9,3.5-7.9,8.3-7.9c4.8,0,8.2,2.9,8.2,7.9c0,4.8-3.4,7.9-8.2,7.9S132.9,38.9,132.9,33.8"/>
	<path class="st2" d="M163.6,21.4c-0.1,1.5-1.1,3.2-2,3.9c-0.4-0.2-0.9-0.4-1.6-0.4c-1.2,0-1.7,0.6-1.7,1.8v0.1h3
		c0.2,0.7,0.2,1.5,0.2,2.3s-0.1,1.6-0.2,2.3h-3v9.8c-0.9,0.2-1.8,0.2-2.7,0.2c-0.9,0-1.9-0.1-2.8-0.2v-9.8h-1.9
		c-0.2-0.6-0.2-1.4-0.2-2.2c0-0.8,0.1-1.6,0.2-2.3h1.9c0.3-4.1,2.8-6.3,6.8-6.3C161.3,20.5,162.7,20.9,163.6,21.4"/>
	<path class="st0" d="M165.1,22.9c1-0.2,1.9-0.2,2.8-0.2c0.9,0,1.9,0.1,2.7,0.2v3.8h4.8c0.2,0.7,0.2,1.5,0.2,2.2
		c0,0.8-0.1,1.6-0.2,2.4h-4.8v3.9c0,1.2,0.6,1.8,1.8,1.8c0.7,0,1.2-0.3,1.7-0.8c1,0.6,2.1,2.3,2.3,3.8c-1.2,0.9-2.7,1.7-5.1,1.7
		c-3.6,0-6.3-1.5-6.3-5.1V22.9z"/>
	<path class="st0" d="M188.4,26.3c-0.1,1.8-0.6,3.6-1.6,4.8c-0.4-0.1-0.8-0.2-1.4-0.2c-0.8,0-1.5,0.2-1.8,0.3v9.9
		c-0.9,0.2-1.9,0.2-2.8,0.2c-0.9,0-1.9-0.1-2.8-0.2V28.3c1-0.9,3.3-2.4,6.8-2.4C186.3,25.9,187.6,26.1,188.4,26.3"/>
	<path class="st0" d="M196.7,38c0.5,0,1-0.1,1.6-0.2v-2.3c-0.6-0.1-1.2-0.2-1.9-0.2c-1.2,0-1.9,0.4-1.9,1.3
		C194.6,37.4,195.3,38,196.7,38 M203.8,32.8v7.4c-2.6,1-5.1,1.5-7.9,1.5c-4.1,0-6.8-1.4-6.8-4.8c0-3.2,2.7-4.7,6.6-4.6
		c1,0,1.9,0.1,2.7,0.3v-0.4c0-0.8-0.6-1.6-2.6-1.6c-1.7,0-3.2,0.7-4,1.2c-1.1-0.6-2-1.8-2.3-3.5c0.8-0.7,3.2-2.2,6.7-2.2
		C200.8,26,203.8,28,203.8,32.8"/>
	<path class="st0" d="M221,26.8c-1.4,5.9-2.4,9.8-5.4,14.4c-0.9,0.2-1.9,0.2-2.8,0.2c-0.9,0-1.8-0.1-2.8-0.2
		c-3.1-4.6-4.4-8.7-5.4-14.4c0.7-0.2,2.5-0.4,4-0.4c0.6,0,1.5,0.1,2,0.1c0.6,4,1.5,7.9,2,9.4c0.1,0.3,0.2,0.7,0.2,1.1
		c0-0.4,0.1-0.8,0.2-1.1c0.5-1.5,1.4-5.3,2-9.4c0.6-0.1,1.5-0.1,2.2-0.1C218.7,26.3,220.1,26.5,221,26.8"/>
	<path class="st0" d="M231.4,32.3c0-1.1-0.5-2.1-2-2.2c-1.4,0-2.1,0.8-2.3,2.2H231.4z M236.5,32.8c0,0.8,0,1.6-0.2,2.3h-9.3
		c0.2,1.7,1.1,2.2,3.1,2.2c1.6,0,3.1-0.7,4.4-1.5c1.1,0.9,1.7,2.4,1.8,3.8c-1.3,1-3.4,2-6.8,2c-4.7,0-8.1-2.7-8.1-7.8
		c0-4.7,3.3-7.9,7.9-7.9C233.7,26,236.5,28.6,236.5,32.8"/>
	<path class="st0" d="M238.8,41.1V20.9c0.9-0.2,1.8-0.2,2.7-0.2c0.9,0,1.9,0.1,2.9,0.2v20.2c-0.9,0.2-1.8,0.2-2.7,0.2
		S239.8,41.3,238.8,41.1"/>
</g>
</svg>
